<!DOCTYPE svg PUBLIC "-//W3C//DTD SVG 1.1//EN" "http://www.w3.org/Graphics/SVG/1.1/DTD/svg11.dtd">

<!-- Uploaded to: SVG Repo, www.svgrepo.com, Transformed by: SVG Repo Mixer Tools -->
<svg fill="#4b3516" version="1.1" id="Capa_1" xmlns="http://www.w3.org/2000/svg"
  xmlns:xlink="http://www.w3.org/1999/xlink"
  width="800px"
  height="800px"
  viewBox="0 0 1600 1600" xml:space="preserve" stroke="#fff">

  <g>
    <path 
    fill="#ff9800"
    transform="translate(740, 600),scale(0.5)" d="M111.01,231.071c2.219,17.139,29.442,17.356,27.195,0c-4.623-35.675-4.302-71.545-4.128-107.432
      c23.154,0.566,46.319,1.055,69.397-1.349c6.826-0.713,14.321-5.668,13.598-13.598c-4.444-48.826-61.38-63.882-83.446-102.048
      c-4.417-7.636-15.137-8.877-21.354-2.752C82.015,33.72,58.387,69.537,32.079,102.731c-6.592,3.954-6.5,12.972-2.012,18.977
      c3.617,5.575,10.41,8.692,16.268,5.167c20.092-3.285,40.298-3.927,60.548-3.758C106.708,159.178,106.365,195.228,111.01,231.071z
       M70.299,97.254c16.1-21.408,32.042-43.012,50.154-62.674c7.441,8.561,16.138,16.013,24.873,23.399
      c11.694,9.883,31.857,22.888,40.499,38.449C147.294,98.467,108.742,94.953,70.299,97.254z"/>
  </g>

<g id="SVGRepo_bgCarrier" stroke-width="0">

<path transform="translate(700, 700), scale(7)" d="M16,30.282434216700494C18.263595996984662,30.25238692082978,19.803557125929295,27.96092569606215,21.477978115730203,26.437415267325846C22.85229100783021,25.186965090091704,23.9589196087635,23.747702063279167,24.925834376706646,22.161058624232247C25.85150757728695,20.642089880454964,26.365281284051687,18.991178029673293,27.022980202876,17.33843211725292C27.879198259230616,15.186823148045212,29.65963021727596,13.219191123229436,29.399896996900377,10.918089393484298C29.13763358965652,8.594571519317025,27.50677569776369,6.527396441973516,25.643278369457384,5.114988882609287C23.819103342018945,3.732385023069973,21.38808155534681,3.7041650163881568,19.164662503423866,3.1604595053906106C16.945070297848847,2.6176897952477476,14.693278689299621,1.1820226858777387,12.52650281511779,1.9074679480178283C10.350926969847162,2.6358594758097578,9.62579829491915,5.346533410473639,7.951192392970283,6.914774319722628C6.331244823155398,8.431828599100033,4.010770495328067,9.129377310856386,2.8169317559020968,11.000321692651916C1.5319793822239025,13.01405633286303,0.17677445125912683,15.5767230461657,0.9910926108635199,17.822411301188183C1.8449147765453706,20.177041842991528,5.06897806825916,20.57461299686091,6.9060503270502185,22.27710023469357C8.289006689040859,23.55874038003983,9.029881361909851,25.33800903424503,10.445158353584516,26.583866489241338C12.139496940645364,28.075379721205834,13.742900688109795,30.312395274647358,16,30.282434216700494" 
fill="#ff9800" strokewidth="0"/>

</g>

<g id="SVGRepo_tracerCarrier" stroke-linecap="round" stroke-linejoin="round"/>

  <!-- <g id="SVGRepo_iconCarrier"> 
  <g> 
    <path transform="translate(700, 700)"
  d="M191.004,99.473c-1.195-10.374-7.35-18.387-17.085-19.938c-0.463-4.166-1.129-8.264-2.16-12.157
  c0.303-0.019,0.608-0.024,0.911-0.044c2.778-0.179,4.07-2.311,3.951-4.369c1.608-0.152,3.117-1.238,3.155-3.346
  c0.054-2.985,0.107-5.971,0.159-8.956c0.029-1.626-1.145-3.132-2.704-3.551c-6.416-1.722-29.696-4.023-56.883-5.111
  c6.675-5.145,4.024-14.352-0.63-20.206c-5.196-6.534-14.8-8.733-22.662-9.253c-17.516-1.158-35.056,10.877-27.799,29.233
  C36.319,43.061,9.22,47.742,11.081,59.034c-0.318,1.264,0.391,2.76,2.175,2.943c2.511,0.256,5.026,0.476,7.541,0.692
  c-0.869,4.135-1.451,8.289-1.868,12.451C8.485,75.917,0.917,84.544,0.06,94.994c-0.918,11.198,8.803,18.346,19.073,17.6
  c0.171,2.274,0.355,4.549,0.544,6.82c1.244,14.909,0.96,31.632,10.179,44.229c14.811,20.235,50.565,12.824,71.64,13.523
  c22.694,0.755,57.155,8.471,68.142-18.683c4.482-11.08,5.236-23.344,5.298-35.417c0.84,0.788,2.008,1.27,3.404,1.074
  C189.369,122.599,192.046,108.513,191.004,99.473z
  M7.212,94.941c0.927-6.527,5.329-11.76,11.277-14.165
  c-0.513,8.687-0.291,17.413,0.26,26.14C11.933,106.05,6.035,103.228,7.212,94.941z M95.671,20.774
  c5.713,0.024,12.01,1.612,16.445,5.35c4.811,4.053,2.654,9.304,4.366,14.468c0.164,0.495,0.507,0.95,0.937,1.298
  c-13.737-0.5-28.334-0.679-42.178-0.312c0.003-0.219,0.036-0.431-0.015-0.66C72.101,26.799,82.911,20.72,95.671,20.774z
  M16.793,56.978c5.125-5.735,20.494-6.549,25.939-7.182c16.492-1.918,33.274-1.855,49.851-1.662
  c17.102,0.2,34.201,1.09,51.248,2.431c6.29,0.495,12.57,1.11,18.837,1.836c2.574,0.298,5.14,0.656,7.699,1.053
  c5.129,0.796,2.454,0.36,2.369,5.63c-0.025-0.002-0.041-0.015-0.066-0.017c-1.395-0.097-2.793-0.164-4.189-0.248
  c-1.615-1.72-4.145-1.673-5.68-0.33c-22.242-1.091-44.668-0.848-66.903-1.636C69.61,55.923,43.052,54.743,16.793,56.978z
  M163.843,145.151c-4.846,31.691-39.189,24.023-62.346,22.941c-18.922-0.886-52.26,7.016-65.16-11.196
  c-7.937-11.205-6.089-29.26-7.316-42.292c-1.61-17.101-2.973-34.278-2.172-51.454c21.014,1.57,42.141,2.007,63.178,2.816
  c23.92,0.92,48.374,2.627,72.412,1.856C166.495,92.859,167.65,120.243,163.843,145.151z
  M176.312,116.775
  c-0.552,0.114-1.002,0.312-1.381,0.557c-0.019-2.471-0.04-4.93-0.05-7.354c-0.033-7.84,0.114-16.597-0.486-25.24
  c5.493,3.142,8.622,9.669,9.341,16.077C184.403,106.774,183.2,115.355,176.312,116.775z"/> 
  </g> 
</g> -->

</svg>