<!DOCTYPE svg PUBLIC "-//W3C//DTD SVG 1.1//EN" "http://www.w3.org/Graphics/SVG/1.1/DTD/svg11.dtd">

<svg width="1000px" height="1000px" viewBox="0 0 250 250" xmlns="http://www.w3.org/2000/svg"
  xmlns:xlink="http://www.w3.org/1999/xlink" aria-hidden="true" role="img"
  class="iconify iconify--twemoji" preserveAspectRatio="xMidYMid meet" fill="#000000">

  <g>
    <path
      fill="#ff9800"
      transform="translate(116, 100),scale(0.07)"
      d="M111.01,231.071c2.219,17.139,29.442,17.356,27.195,0c-4.623-35.675-4.302-71.545-4.128-107.432
      c23.154,0.566,46.319,1.055,69.397-1.349c6.826-0.713,14.321-5.668,13.598-13.598c-4.444-48.826-61.38-63.882-83.446-102.048
      c-4.417-7.636-15.137-8.877-21.354-2.752C82.015,33.72,58.387,69.537,32.079,102.731c-6.592,3.954-6.5,12.972-2.012,18.977
      c3.617,5.575,10.41,8.692,16.268,5.167c20.092-3.285,40.298-3.927,60.548-3.758C106.708,159.178,106.365,195.228,111.01,231.071z
       M70.299,97.254c16.1-21.408,32.042-43.012,50.154-62.674c7.441,8.561,16.138,16.013,24.873,23.399
      c11.694,9.883,31.857,22.888,40.499,38.449C147.294,98.467,108.742,94.953,70.299,97.254z" />
  </g>

  <g id="SVGRepo_bgCarrier" stroke-width="0" />

  <g id="SVGRepo_tracerCarrier" stroke-linecap="round" stroke-linejoin="round" />

  <g id="SVGRepo_iconCarrier" transform="translate(107, 110)">
    <path fill="#E1E8ED"
      d="M36 18c0 9.941-8.059 18-18 18S0 27.941 0 18S8.059 0 18 0s18 8.059 18 18z"> </path>
    <path fill="#CCD6DD"
      d="M30 18c0 6.628-5.372 12-12 12S6 24.628 6 18S11.372 6 18 6s12 5.372 12 12z"> </path>
    <path fill="#E1E8ED"
      d="M29 18c0 6.075-4.925 11-11 11c-6.076 0-11-4.925-11-11c0-6.076 4.925-11 11-11s11 4.924 11 11z"> </path>
    <g fill="#99AAB5">
      <circle cx="1" cy="1" r="1"> </circle>
      <path d="M0 1h2v7H0z"> </path>
      <circle cx="5" cy="1" r="1"> </circle>
      <path d="M4 1h2v7H4z"> </path>
      <circle cx="9" cy="1" r="1"> </circle>
      <path d="M8 1h2v7H8zM3 14h4v20H3z"> </path>
      <circle cx="5" cy="34" r="2"> </circle>
      <path d="M8 8a1 1 0 0 1-2 0H4a1 1 0 0 1-2 0H0c0 3.866 1 7 5 7s5-3.134 5-7H8z"> </path>
      <circle cx="1" cy="8" r="1"> </circle>
      <circle cx="5" cy="8" r="1"> </circle>
      <circle cx="9" cy="8" r="1"> </circle>
    </g>
    <g fill="#99AAB5">
      <path d="M30 14h4v20h-4z"> </path>
      <circle cx="32" cy="34" r="2"> </circle>
      <path d="M32 0c1 0 2 1 2 3v16s-7 2-7-8c0-6 3-11 5-11z"> </path>
    </g>
  </g>

</svg>